<svg xmlns="http://www.w3.org/2000/svg" version="1.1" xmlns:xlink="http://www.w3.org/1999/xlink" xmlns:svgjs="http://svgjs.com/svgjs" width="1440" height="5600" preserveAspectRatio="none" viewBox="0 0 1440 5600"><g mask="url(&quot;#SvgjsMask1017&quot;)" fill="none"><path d="M1203.415,2864.642C1260.352,2862.901,1312.466,2833.842,1341.419,2784.785C1370.874,2734.878,1372.425,2674.347,1346.237,2622.651C1317.104,2565.142,1267.872,2511.245,1203.415,2512.365C1140.185,2513.463,1099.216,2571.947,1068.936,2627.467C1040.317,2679.942,1020.499,2741.699,1049.981,2793.694C1079.769,2846.231,1143.049,2866.487,1203.415,2864.642" fill="rgba(244, 180, 0, 0.35)" class="triangle-float1"></path><path d="M865.33,1874.251C986.665,1883.168,1110.381,1836.642,1175.622,1733.952C1245.423,1624.084,1250.714,1482.606,1185.844,1369.756C1120.774,1256.559,995.831,1190.012,865.33,1194.163C741.433,1198.104,632.025,1277.374,578.286,1389.08C530.583,1488.238,569.084,1598.792,625.113,1693.495C679.802,1785.933,758.215,1866.379,865.33,1874.251" fill="rgba(244, 180, 0, 0.35)" class="triangle-float3"></path><path d="M911.127,6062.114C1035.962,6061.38,1136.27,5973.431,1200.648,5866.474C1267.562,5755.303,1312.407,5617.451,1245.795,5506.098C1180.361,5396.716,1038.587,5382.564,911.127,5382.494C783.499,5382.424,641.982,5396.589,575.82,5505.729C507.968,5617.656,548.085,5757.812,615.644,5869.915C680.646,5977.775,785.196,6062.855,911.127,6062.114" fill="rgba(244, 180, 0, 0.35)" class="triangle-float2"></path><path d="M52.901,1031.522C119.171,1031.247,160.866,967.796,192.817,909.736C223.248,854.437,247.036,789.747,216.281,734.628C184.939,678.456,117.196,657.031,52.901,658.974C-7.783,660.808,-64.426,691.117,-94.227,744.012C-123.509,795.985,-116.213,857.799,-89.038,910.904C-58.723,970.145,-13.645,1031.798,52.901,1031.522" fill="rgba(244, 180, 0, 0.35)" class="triangle-float2"></path></g><defs><mask id="SvgjsMask1017"><rect width="1440" height="5600" fill="#ffffff"></rect></mask><style>
            @keyframes float1 {
                0%{transform: translate(0, 0)}
                50%{transform: translate(-10px, 0)}
                100%{transform: translate(0, 0)}
            }

            .triangle-float1 {
                animation: float1 5s infinite;
            }

            @keyframes float2 {
                0%{transform: translate(0, 0)}
                50%{transform: translate(-5px, -5px)}
                100%{transform: translate(0, 0)}
            }

            .triangle-float2 {
                animation: float2 4s infinite;
            }

            @keyframes float3 {
                0%{transform: translate(0, 0)}
                50%{transform: translate(0, -10px)}
                100%{transform: translate(0, 0)}
            }

            .triangle-float3 {
                animation: float3 6s infinite;
            }
        </style></defs></svg>