<svg xmlns="http://www.w3.org/2000/svg" version="1.1" xmlns:xlink="http://www.w3.org/1999/xlink" xmlns:svgjs="http://svgjs.com/svgjs" width="1840" height="5600" preserveAspectRatio="none" viewBox="0 0 1840 5600"><g mask="url(&quot;#SvgjsMask1069&quot;)" fill="none"><path d="M155.626,463.31C249.617,463.005,330.457,402.844,377.025,321.2C423.133,240.362,427.477,143.738,385.184,60.84C338.455,-30.754,258.381,-116.569,155.626,-112.765C56.75,-109.105,-1.02,-11.18,-46.268,76.812C-86.592,155.229,-109.1,244.486,-68.273,322.643C-24.534,406.375,61.158,463.616,155.626,463.31" fill="rgba(48, 142, 28, 0.4)" class="triangle-float1"></path><path d="M1137.529,3749.13C1314.835,3761.986,1484.776,3649.718,1562.1,3489.644C1631.828,3345.294,1555.561,3188.276,1475.553,3049.36C1395.334,2910.077,1298.255,2753.865,1137.529,2752.468C975.386,2751.059,859.728,2897.401,789.172,3043.394C728.234,3169.486,745.71,3309.368,807.697,3434.947C879.73,3580.879,975.213,3737.361,1137.529,3749.13" fill="rgba(48, 142, 28, 0.4)" class="triangle-float2"></path><path d="M1293.332,4884.758C1357.713,4887.317,1417.807,4848.688,1447.791,4791.658C1475.965,4738.07,1463.861,4673.844,1430.935,4623.037C1400.963,4576.79,1348.434,4554.275,1293.332,4553.323C1236.241,4552.336,1176.37,4569.024,1147.239,4618.134C1117.631,4668.049,1130.886,4729.273,1158.774,4780.169C1188.032,4833.566,1232.493,4882.34,1293.332,4884.758" fill="rgba(48, 142, 28, 0.4)" class="triangle-float1"></path><path d="M703.042,2917.299C815.516,2913.464,905.993,2835.701,962.161,2738.181C1018.208,2640.869,1047.805,2519.027,986.694,2424.813C929.062,2335.963,808.679,2331.172,703.042,2338.706C612.977,2345.13,533.411,2386.759,481.766,2460.825C419.567,2550.026,363.962,2659.107,411.397,2756.961C463.263,2863.956,584.208,2921.351,703.042,2917.299" fill="rgba(48, 142, 28, 0.4)" class="triangle-float3"></path></g><defs><mask id="SvgjsMask1069"><rect width="1840" height="5600" fill="#ffffff"></rect></mask><style>
            @keyframes float1 {
                0%{transform: translate(0, 0)}
                50%{transform: translate(-10px, 0)}
                100%{transform: translate(0, 0)}
            }

            .triangle-float1 {
                animation: float1 5s infinite;
            }

            @keyframes float2 {
                0%{transform: translate(0, 0)}
                50%{transform: translate(-5px, -5px)}
                100%{transform: translate(0, 0)}
            }

            .triangle-float2 {
                animation: float2 4s infinite;
            }

            @keyframes float3 {
                0%{transform: translate(0, 0)}
                50%{transform: translate(0, -10px)}
                100%{transform: translate(0, 0)}
            }

            .triangle-float3 {
                animation: float3 6s infinite;
            }
        </style></defs></svg>