<svg xmlns="http://www.w3.org/2000/svg" version="1.1" xmlns:xlink="http://www.w3.org/1999/xlink" xmlns:svgjs="http://svgjs.com/svgjs" width="1840" height="5600" preserveAspectRatio="none" viewBox="0 0 1840 5600"><g mask="url(&quot;#SvgjsMask1035&quot;)" fill="none"><path d="M1010.077,2394.118C1198.282,2390.898,1358.22,2270.311,1451.854,2107.019C1544.957,1944.654,1567.465,1746.266,1474.82,1583.639C1381.32,1419.51,1198.961,1329.671,1010.077,1331.532C824.475,1333.361,655.551,1432.962,560.929,1592.643C464.343,1755.639,448.694,1957.317,541.317,2122.597C635.932,2291.431,816.567,2397.429,1010.077,2394.118" fill="rgba(142, 28, 28, 0.4)" class="triangle-float1"></path><path d="M1788.997,5614.444C1904.066,5610.137,2020.036,5574.124,2079.961,5475.795C2142.145,5373.758,2132.35,5247.41,2077.319,5141.344C2017.007,5025.1,1919.885,4910.674,1788.997,4914.991C1662.332,4919.169,1594.366,5049.101,1531.839,5159.337C1470.544,5267.401,1396.578,5390.92,1457.696,5499.084C1519.353,5608.202,1663.752,5619.131,1788.997,5614.444" fill="rgba(142, 28, 28, 0.4)" class="triangle-float2"></path><path d="M651.168,5844.581C802.341,5857.012,980.547,5862.334,1061.016,5733.755C1144.167,5600.891,1070.123,5436.23,991.637,5300.559C913.31,5165.163,807.554,5028.542,651.168,5025.292C490.717,5021.957,353.974,5140.842,285.27,5285.878C225.129,5412.836,266.548,5557.231,343.514,5674.753C412.298,5779.782,526.042,5834.292,651.168,5844.581" fill="rgba(142, 28, 28, 0.4)" class="triangle-float3"></path><path d="M1511.459,4328.097C1683.442,4322.145,1855.923,4258.142,1939.866,4107.918C2022.114,3960.729,1983.974,3782.435,1897.127,3637.912C1813.253,3498.335,1674.203,3400.556,1511.459,3394.999C1338.488,3389.093,1171.512,3464.732,1077.308,3609.92C973.895,3769.301,930.132,3976.869,1028.421,4139.46C1124.266,4298.007,1326.304,4334.504,1511.459,4328.097" fill="rgba(142, 28, 28, 0.4)" class="triangle-float2"></path></g><defs><mask id="SvgjsMask1035"><rect width="1840" height="5600" fill="#ffffff"></rect></mask><style>
            @keyframes float1 {
                0%{transform: translate(0, 0)}
                50%{transform: translate(-10px, 0)}
                100%{transform: translate(0, 0)}
            }

            .triangle-float1 {
                animation: float1 5s infinite;
            }

            @keyframes float2 {
                0%{transform: translate(0, 0)}
                50%{transform: translate(-5px, -5px)}
                100%{transform: translate(0, 0)}
            }

            .triangle-float2 {
                animation: float2 4s infinite;
            }

            @keyframes float3 {
                0%{transform: translate(0, 0)}
                50%{transform: translate(0, -10px)}
                100%{transform: translate(0, 0)}
            }

            .triangle-float3 {
                animation: float3 6s infinite;
            }
        </style></defs></svg>