<svg xmlns="http://www.w3.org/2000/svg" version="1.1" xmlns:xlink="http://www.w3.org/1999/xlink" xmlns:svgjs="http://svgjs.com/svgjs" width="1840" height="5600" preserveAspectRatio="none" viewBox="0 0 1840 5600"><g mask="url(&quot;#SvgjsMask1091&quot;)" fill="none"><path d="M1025.364,1586.367C1168.643,1588.126,1290.641,1494.899,1364.359,1372.026C1440.584,1244.974,1473.863,1088.431,1401.753,958.999C1328.01,826.636,1176.777,757.883,1025.364,763.552C883.226,768.874,762.515,860.372,694.817,985.466C630.464,1104.379,635.314,1245.41,700.481,1363.878C768.284,1487.138,884.697,1584.641,1025.364,1586.367" fill="rgba(28, 77, 142, 0.4)" class="triangle-float1"></path><path d="M921.812,3921.861C986.179,3924.8,1047.889,3890.258,1079.323,3834.012C1110.067,3779.001,1100.82,3712.492,1069.331,3657.904C1037.819,3603.275,984.78,3557.448,921.812,3560.954C862.865,3564.236,827.379,3620.453,800.243,3672.885C775.881,3719.956,764.135,3773.054,787.391,3820.682C813.764,3874.695,861.767,3919.119,921.812,3921.861" fill="rgba(28, 77, 142, 0.4)" class="triangle-float3"></path><path d="M787.657,4658.128C855.622,4654.895,916.673,4616.23,948.45,4556.064C978.281,4499.583,965.721,4434.135,935.752,4377.727C903.342,4316.724,856.733,4253.938,787.657,4253.416C718.011,4252.89,671.205,4315.58,635.637,4375.461C598.995,4437.15,564.003,4509.543,597.988,4572.735C633.186,4638.183,713.428,4661.659,787.657,4658.128" fill="rgba(28, 77, 142, 0.4)" class="triangle-float3"></path><path d="M495.893,707.335C645.76,702.49,777.724,609.291,845.919,475.751C908.491,353.222,882.997,208.929,809.954,92.339C741.733,-16.554,624.083,-74.065,495.893,-82.956C346.509,-93.317,179.596,-81.46,96.076,42.828C5.017,178.336,20.17,359.834,104.339,499.726C185.969,635.398,337.64,712.451,495.893,707.335" fill="rgba(28, 77, 142, 0.4)" class="triangle-float2"></path></g><defs><mask id="SvgjsMask1091"><rect width="1840" height="5600" fill="#ffffff"></rect></mask><style>
            @keyframes float1 {
                0%{transform: translate(0, 0)}
                50%{transform: translate(-10px, 0)}
                100%{transform: translate(0, 0)}
            }

            .triangle-float1 {
                animation: float1 5s infinite;
            }

            @keyframes float2 {
                0%{transform: translate(0, 0)}
                50%{transform: translate(-5px, -5px)}
                100%{transform: translate(0, 0)}
            }

            .triangle-float2 {
                animation: float2 4s infinite;
            }

            @keyframes float3 {
                0%{transform: translate(0, 0)}
                50%{transform: translate(0, -10px)}
                100%{transform: translate(0, 0)}
            }

            .triangle-float3 {
                animation: float3 6s infinite;
            }
        </style></defs></svg>