<svg xmlns="http://www.w3.org/2000/svg" version="1.1" xmlns:xlink="http://www.w3.org/1999/xlink" xmlns:svgjs="http://svgjs.com/svgjs" width="1440" height="5600" preserveAspectRatio="none" viewBox="0 0 1440 5600"><g clip-path="url(&quot;#SvgjsClipPath1179&quot;)" fill="none"><rect width="1440" height="5600" x="0" y="0" fill="rgba(255, 255, 255, 1)"></rect><circle r="240" cx="7.59" cy="89.37" stroke="#ff0000" stroke-opacity="0.24" stroke-width="2"></circle><circle r="240" cx="875.48" cy="1010.02" stroke="#ff0000" stroke-opacity="0.24" stroke-width="2"></circle><circle r="240" cx="1811.18" cy="2026.89" stroke="#ff0000" stroke-opacity="0.24" stroke-width="2"></circle><circle r="240" cx="2717.54" cy="2998.07" stroke="#ff0000" stroke-opacity="0.24" stroke-width="2"></circle><circle r="240" cx="4074" cy="3882.12" stroke="#ff0000" stroke-opacity="0.24" stroke-width="2"></circle><circle r="354.89" cx="282.76" cy="786.43" stroke="#ff0000" stroke-opacity="0.24" stroke-width="2"></circle><circle r="390.825" cx="850.39" cy="4836.49" stroke="#ff0000" stroke-opacity="0.24" stroke-width="2"></circle><circle r="402.2" cx="1041.5" cy="4560.03" stroke="#ff0000" stroke-opacity="0.24" stroke-width="2"></circle><circle r="394.105" cx="1295.8" cy="2903.07" stroke="#ff0000" stroke-opacity="0.24" stroke-width="2"></circle><circle r="138.595" cx="664.01" cy="5224.71" stroke="#ff0000" stroke-opacity="0.24" stroke-width="2"></circle><circle r="213.75" cx="1242.59" cy="1517.29" stroke="#ff0000" stroke-opacity="0.24" stroke-width="2"></circle><circle r="408.145" cx="657.41" cy="3560.1" stroke="#ff0000" stroke-opacity="0.24" stroke-width="2"></circle><circle r="265.66" cx="761.96" cy="2687.73" stroke="#ff0000" stroke-opacity="0.24" stroke-width="2"></circle><circle r="259.245" cx="22.32" cy="4965.73" stroke="#ff0000" stroke-opacity="0.24" stroke-width="2"></circle><circle r="402.19" cx="3.12" cy="5135.61" stroke="#ff0000" stroke-opacity="0.24" stroke-width="2"></circle><circle r="279.37" cx="1085.66" cy="84.39" stroke="#ff0000" stroke-opacity="0.24" stroke-width="2"></circle><circle r="147.55" cx="613.51" cy="4795.86" stroke="#ff0000" stroke-opacity="0.24" stroke-width="2"></circle><circle r="315.06" cx="527.94" cy="3330.76" stroke="#ff0000" stroke-opacity="0.24" stroke-width="2"></circle><circle r="313.995" cx="1173.84" cy="609.09" stroke="#ff0000" stroke-opacity="0.24" stroke-width="2"></circle><circle r="219.98" cx="591.92" cy="4849.31" stroke="#ff0000" stroke-opacity="0.24" stroke-width="2"></circle><circle r="465.455" cx="383.99" cy="2138.65" stroke="#ff0000" stroke-opacity="0.24" stroke-width="2"></circle><circle r="339.51" cx="984.92" cy="2207.68" stroke="#ff0000" stroke-opacity="0.24" stroke-width="2"></circle><circle r="438.65" cx="495.47" cy="1082.17" stroke="#ff0000" stroke-opacity="0.24" stroke-width="2"></circle><circle r="177.485" cx="576.35" cy="2042.49" stroke="#ff0000" stroke-opacity="0.24" stroke-width="2"></circle><circle r="300.215" cx="1434.54" cy="453.12" stroke="#ff0000" stroke-opacity="0.24" stroke-width="2"></circle><circle r="272.74" cx="523.49" cy="4311.87" stroke="#ff0000" stroke-opacity="0.24" stroke-width="2"></circle><circle r="201.375" cx="102.47" cy="3972.09" stroke="#ff0000" stroke-opacity="0.24" stroke-width="2"></circle><circle r="182.65" cx="603.66" cy="2698.71" stroke="#ff0000" stroke-opacity="0.24" stroke-width="2"></circle><circle r="387.1" cx="418.83" cy="1940.56" stroke="#ff0000" stroke-opacity="0.24" stroke-width="2"></circle></g><defs><clipPath id="SvgjsClipPath1179"><rect width="1440" height="5600" x="0" y="0"></rect></clipPath></defs></svg>